<?xml version="1.0" encoding="UTF-8"?>
<svg width="64px" height="64px" viewBox="0 0 64 64" version="1.1" xmlns="http://www.w3.org/2000/svg" xmlns:xlink="http://www.w3.org/1999/xlink">
    <!-- Generator: Sketch 41.1 (35376) - http://www.bohemiancoding.com/sketch -->
    <title>column-plot-line</title>
    <desc>Created with Sketch.</desc>
    <defs>
        <rect id="path-1" x="0" y="6" width="12" height="24" rx="4"></rect>
        <mask id="mask-2" maskContentUnits="userSpaceOnUse" maskUnits="objectBoundingBox" x="0" y="0" width="12" height="24" fill="white">
            <use xlink:href="#path-1"></use>
        </mask>
        <rect id="path-3" x="20" y="12" width="12" height="18" rx="4"></rect>
        <mask id="mask-4" maskContentUnits="userSpaceOnUse" maskUnits="objectBoundingBox" x="0" y="0" width="12" height="18" fill="white">
            <use xlink:href="#path-3"></use>
        </mask>
        <rect id="path-5" x="40" y="0" width="12" height="30" rx="4"></rect>
        <mask id="mask-6" maskContentUnits="userSpaceOnUse" maskUnits="objectBoundingBox" x="0" y="0" width="12" height="30" fill="white">
            <use xlink:href="#path-5"></use>
        </mask>
    </defs>
    <g id="Charticons,-vol.-I-(Axes)" stroke="none" stroke-width="1" fill="none" fill-rule="evenodd" stroke-linecap="round" stroke-linejoin="round">
        <g id="column-plot-line" stroke="#000000">
            <g id="axes" transform="translate(1.000000, 2.000000)" stroke-width="4">
                <polyline id="y" points="1 0 1 60 61 60"></polyline>
            </g>
            <g id="rects" transform="translate(8.000000, 26.000000)" stroke-width="8">
                <use id="1" mask="url(#mask-2)" xlink:href="#path-1"></use>
                <use id="2" mask="url(#mask-4)" xlink:href="#path-3"></use>
                <use id="3" mask="url(#mask-6)" xlink:href="#path-5"></use>
            </g>
            <g id="lines" transform="translate(10.000000, 4.000000)" stroke-width="4">
                <path d="M28,14 L40,6" id="2"></path>
                <path d="M8,11 L20,16" id="1"></path>
                <g id="circles">
                    <rect id="3" x="40" y="0" width="8" height="8" rx="4"></rect>
                    <rect id="2" x="20" y="12" width="8" height="8" rx="4"></rect>
                    <rect id="1" x="0" y="6" width="8" height="8" rx="4"></rect>
                </g>
            </g>
        </g>
    </g>
</svg>