<?xml version="1.0" encoding="UTF-8"?>
<svg width="64px" height="64px" viewBox="0 0 64 64" version="1.1" xmlns="http://www.w3.org/2000/svg" xmlns:xlink="http://www.w3.org/1999/xlink">
    <!-- Generator: Sketch 41.1 (35376) - http://www.bohemiancoding.com/sketch -->
    <title>candlestick-chart</title>
    <desc>Created with Sketch.</desc>
    <defs>
        <rect id="path-1" x="0" y="4" width="12" height="18" rx="4"></rect>
        <mask id="mask-2" maskContentUnits="userSpaceOnUse" maskUnits="objectBoundingBox" x="0" y="0" width="12" height="18" fill="white">
            <use xlink:href="#path-1"></use>
        </mask>
        <rect id="path-3" x="0" y="6" width="12" height="18" rx="4"></rect>
        <mask id="mask-4" maskContentUnits="userSpaceOnUse" maskUnits="objectBoundingBox" x="0" y="0" width="12" height="18" fill="white">
            <use xlink:href="#path-3"></use>
        </mask>
        <rect id="path-5" x="0" y="9" width="12" height="24" rx="4"></rect>
        <mask id="mask-6" maskContentUnits="userSpaceOnUse" maskUnits="objectBoundingBox" x="0" y="0" width="12" height="24" fill="white">
            <use xlink:href="#path-5"></use>
        </mask>
    </defs>
    <g id="Charticons,-vol.-I-(Axes)" stroke="none" stroke-width="1" fill="none" fill-rule="evenodd" stroke-linecap="round" stroke-linejoin="round">
        <g id="candlestick-chart" stroke="#000000">
            <g id="axes" transform="translate(1.000000, 2.000000)" stroke-width="4">
                <polyline id="y" points="1 0 1 60 61 60"></polyline>
            </g>
            <g id="candles" transform="translate(8.000000, 6.000000)">
                <g id="3" transform="translate(40.000000, 18.000000)">
                    <path d="M6,22 L6,30" id="bottom" stroke-width="4"></path>
                    <use mask="url(#mask-2)" stroke-width="8" xlink:href="#path-1"></use>
                    <path d="M6,0 L6,4" id="top" stroke-width="4"></path>
                </g>
                <g id="2" transform="translate(20.000000, 8.000000)">
                    <path d="M6,24 L6,30" id="bottom" stroke-width="4"></path>
                    <use mask="url(#mask-4)" stroke-width="8" xlink:href="#path-3"></use>
                    <path d="M6,0 L6,6" id="top" stroke-width="4"></path>
                </g>
                <g id="1">
                    <path d="M6,33 L6,45" id="bottom" stroke-width="4"></path>
                    <use mask="url(#mask-6)" stroke-width="8" xlink:href="#path-5"></use>
                    <path d="M6,0 L6,9" id="top" stroke-width="4"></path>
                </g>
            </g>
        </g>
    </g>
</svg>