<?xml version="1.0" encoding="UTF-8"?>
<svg width="64px" height="64px" viewBox="0 0 64 64" version="1.1" xmlns="http://www.w3.org/2000/svg" xmlns:xlink="http://www.w3.org/1999/xlink">
    <!-- Generator: Sketch 41.1 (35376) - http://www.bohemiancoding.com/sketch -->
    <title>radar-chart</title>
    <desc>Created with Sketch.</desc>
    <defs></defs>
    <g id="Charticons,-vol.-III-(Axes)" stroke="none" stroke-width="1" fill="none" fill-rule="evenodd" stroke-linecap="round" stroke-linejoin="round">
        <g id="radar-chart" stroke="#000000" stroke-width="4">
            <polygon id="Polygon" points="32 2 62 24.9179607 50.5410197 62 13.4589803 62 2 24.9179607"></polygon>
            <g id="Group-2" transform="translate(3.000000, 4.000000)">
                <g id="Group-4" transform="translate(28.000000, 0.000000)">
                    <path d="M1,0 L1,12" id="Line"></path>
                    <path d="M1,20 L1,30" id="Line-Copy-6"></path>
                </g>
                <path d="M11,57 L17,49" id="Line-Copy-3"></path>
                <path d="M22,41 L29,30" id="Line-Copy-9"></path>
                <g id="Group-5" transform="translate(29.000000, 30.000000)">
                    <path d="M10,15 L0,-1.77635684e-14" id="Line-Copy-2"></path>
                    <path d="M18,28 L15,23" id="Line-Copy-8"></path>
                </g>
                <g id="Group-6" transform="translate(29.000000, 21.000000)">
                    <path d="M29,0 L20,3" id="Line-Copy"></path>
                    <path d="M12,5 L0,9" id="Line-Copy-7"></path>
                </g>
                <g id="Group-3" transform="translate(0.000000, 21.000000)">
                    <path d="M20,6 L29,9" id="Line-Copy-4"></path>
                    <path d="M0,0 L12,4" id="Line-Copy-5"></path>
                </g>
            </g>
            <g id="circles" transform="translate(15.000000, 16.000000)">
                <rect id="4" x="13" y="0" width="8" height="8" rx="4"></rect>
                <rect id="4-copy" x="3" y="29" width="8" height="8" rx="4"></rect>
                <rect id="4-copy-3" x="29" y="9" width="8" height="8" rx="4"></rect>
                <rect id="4-copy-4" x="25" y="33" width="8" height="8" rx="4"></rect>
                <rect id="4-copy-2" x="0" y="10" width="8" height="8" rx="4"></rect>
            </g>
            <g id="plot" transform="translate(19.000000, 21.000000)">
                <path d="M3,6 L9,1" id="Line-Copy-10"></path>
                <path d="M17,0 L25,5" id="Line-Copy-11"></path>
                <path d="M29,12 L26,28" id="Line-Copy-12"></path>
                <path d="M20,32 L7,29" id="Line-Copy-13"></path>
                <path d="M0,13 L2,24" id="Line"></path>
            </g>
        </g>
    </g>
</svg>